<svg width="130" height="30" viewBox="0 0 130 30" fill="none" xmlns="http://www.w3.org/2000/svg">
<circle cx="15" cy="15" r="14" fill="#FFCE17" stroke="#1C4FA1" stroke-width="2"/>
<path d="M2.75 21.5L10.1069 5.25H13.9408L16.1168 11.835H11.7648H21.2977L11.7648 20.7565H27.75" stroke="#1C4FA1" stroke-width="2"/>
<path d="M46.832 18C46.832 17.8353 46.7819 17.7422 46.6816 17.7207C46.653 17.7135 46.6136 17.71 46.5635 17.71H46.2305L43.7168 11.5547H43.0508L40.6875 17.71H40V18H41.9551C41.9551 17.8353 41.9049 17.7422 41.8047 17.7207C41.7689 17.7135 41.7295 17.71 41.6865 17.71H41.1172L41.9014 15.6475H44.0713L44.877 17.71H44.1357V18H46.832ZM43.9424 15.3252H42.0195L42.9756 12.8115L43.9424 15.3252ZM51.5156 18C51.4583 17.821 51.3652 17.7243 51.2363 17.71H50.5059V11.8447H50.8281C51.3509 11.8447 51.7233 12.1097 51.9453 12.6396C51.9811 12.7256 52.0133 12.8151 52.042 12.9082L52.3213 13.7998H52.6328L52.5898 11.5547H47.1113L47.0576 13.7998H47.3799L47.6592 12.9082C47.8311 12.3496 48.1068 12.013 48.4863 11.8984C48.6009 11.8626 48.7298 11.8447 48.873 11.8447H49.1846V17.71H48.1641V18H51.5156ZM56.6826 11.4473C55.7588 11.4473 54.9746 11.7409 54.3301 12.3281C53.6497 12.9512 53.3096 13.7568 53.3096 14.7451C53.3096 15.8838 53.7142 16.7682 54.5234 17.3984C55.1322 17.8711 55.8411 18.1074 56.6504 18.1074C57.5671 18.1074 58.3441 17.8102 58.9814 17.2158C59.6546 16.5856 59.9912 15.7764 59.9912 14.7881C59.9912 13.6136 59.5758 12.7184 58.7451 12.1025C58.1579 11.6657 57.4704 11.4473 56.6826 11.4473ZM56.6826 17.7959C55.7946 17.7959 55.2253 17.3268 54.9746 16.3887C54.86 15.9518 54.8027 15.4183 54.8027 14.7881C54.8027 12.876 55.3506 11.8698 56.4463 11.7695C56.5179 11.7624 56.5859 11.7588 56.6504 11.7588C57.61 11.7588 58.1937 12.3424 58.4014 13.5098C58.4658 13.8678 58.498 14.2796 58.498 14.7451C58.498 16.5068 58.054 17.5059 57.166 17.7422C57.0156 17.778 56.8545 17.7959 56.6826 17.7959ZM66.0498 18L66.0713 15.7764H65.7705L65.4805 16.8076C65.3086 17.402 64.9577 17.7028 64.4277 17.71H62.1396L66.0068 11.791V11.5547H61.1729L61.0869 13.499H61.377L61.8174 12.5322C62.0394 12.0811 62.3294 11.8519 62.6875 11.8447L64.6318 11.834L60.668 17.7744V18H66.0498ZM71.7646 18C71.7217 17.821 71.625 17.7243 71.4746 17.71H70.9053V11.8447H71.7646V11.5547H68.7246V11.8447H69.584V17.71H68.7246V18H71.7646ZM74.4932 17.7207H74.1602L74.1709 15.0674C74.221 14.4945 74.4359 14.1006 74.8154 13.8857C74.9515 13.8141 75.0876 13.7783 75.2236 13.7783C75.6247 13.7783 75.8789 13.9896 75.9863 14.4121C76.0221 14.541 76.04 14.6842 76.04 14.8418V17.1406C76.04 17.4414 75.9577 17.6204 75.793 17.6777C75.7142 17.7064 75.5996 17.7207 75.4492 17.7207V18H77.9092C77.9092 17.8424 77.8626 17.7529 77.7695 17.7314C77.7266 17.7243 77.6836 17.7207 77.6406 17.7207H77.2217V15.0029C77.2217 14.1579 76.9281 13.6136 76.3408 13.3701C76.1546 13.2913 75.9541 13.252 75.7393 13.252C75.2236 13.252 74.7868 13.4561 74.4287 13.8643C74.3141 14.0003 74.221 14.1436 74.1494 14.2939L74.0957 13.4023H72.291V13.6709H72.9785V17.1406C72.9785 17.4557 72.8604 17.6383 72.624 17.6885C72.5309 17.71 72.4199 17.7207 72.291 17.7207V18H74.7617C74.7617 17.8424 74.7152 17.7529 74.6221 17.7314C74.5791 17.7243 74.5361 17.7207 74.4932 17.7207ZM78.2852 13.7139H79.0264V16.5068C79.0908 17.5452 79.5742 18.0824 80.4766 18.1182C81.0423 18.1182 81.4255 17.8926 81.626 17.4414C81.6976 17.2839 81.7549 17.0941 81.7979 16.8721L81.5078 16.8291C81.3503 17.4665 81.096 17.7887 80.7451 17.7959C80.4443 17.7959 80.2689 17.5918 80.2188 17.1836C80.2116 17.112 80.208 17.0404 80.208 16.9688V13.7139H81.7119V13.4346H80.208V12.1885L79.0264 12.4141V13.4346H78.2852V13.7139ZM84.5586 13.5312C85.0026 13.5312 85.2676 13.7926 85.3535 14.3154C85.375 14.43 85.3857 14.5482 85.3857 14.6699C85.3857 15.0065 85.264 15.2178 85.0205 15.3037C84.863 15.3467 84.6338 15.3646 84.333 15.3574L83.5059 15.3252C83.5345 14.3083 83.8031 13.721 84.3115 13.5635C84.3975 13.542 84.4798 13.5312 84.5586 13.5312ZM86.5244 16.915L86.2666 16.8291C86.0589 17.2803 85.7295 17.5775 85.2783 17.7207C85.1279 17.7708 84.974 17.7959 84.8164 17.7959C83.9785 17.7959 83.5417 17.0833 83.5059 15.6582C83.5059 15.651 83.5059 15.6439 83.5059 15.6367L84.5908 15.6582C85.665 15.6797 86.3096 15.5257 86.5244 15.1963C86.596 15.0817 86.6318 14.9456 86.6318 14.7881C86.6318 14.2223 86.3454 13.7962 85.7725 13.5098C85.4144 13.3379 85.0098 13.252 84.5586 13.252C83.735 13.252 83.1048 13.5492 82.668 14.1436C82.36 14.5661 82.2061 15.0781 82.2061 15.6797C82.2061 16.6608 82.5677 17.3626 83.291 17.7852C83.6777 18 84.111 18.1074 84.5908 18.1074C85.4072 18.1074 85.998 17.8174 86.3633 17.2373C86.4277 17.1299 86.4814 17.0225 86.5244 16.915ZM89.833 17.7207H89.0488V15.3896C89.099 14.7021 89.2923 14.2402 89.6289 14.0039C89.7077 13.9538 89.7757 13.9287 89.833 13.9287C89.9261 13.9287 90.0192 14.0111 90.1123 14.1758C90.234 14.4049 90.363 14.541 90.499 14.584C90.5635 14.6055 90.6315 14.6162 90.7031 14.6162C90.9609 14.6162 91.1436 14.4909 91.251 14.2402C91.2868 14.1615 91.3047 14.0791 91.3047 13.9932C91.3047 13.6494 91.1364 13.4346 90.7998 13.3486C90.7139 13.3271 90.6279 13.3164 90.542 13.3164C90.1051 13.3164 89.7148 13.4954 89.3711 13.8535C89.2207 14.0182 89.1025 14.2044 89.0166 14.4121L88.9521 13.4023H87.1797V13.6709H87.8564V17.1406C87.8564 17.4486 87.749 17.6312 87.5342 17.6885C87.4411 17.71 87.3229 17.7207 87.1797 17.7207V18H90.0908C90.0908 17.8353 90.0371 17.7458 89.9297 17.7314C89.901 17.7243 89.8688 17.7207 89.833 17.7207ZM93.8076 17.7207H93.4746L93.4854 15.0674C93.5355 14.4945 93.7503 14.1006 94.1299 13.8857C94.266 13.8141 94.402 13.7783 94.5381 13.7783C94.9391 13.7783 95.1934 13.9896 95.3008 14.4121C95.3366 14.541 95.3545 14.6842 95.3545 14.8418V17.1406C95.3545 17.4414 95.2721 17.6204 95.1074 17.6777C95.0286 17.7064 94.9141 17.7207 94.7637 17.7207V18H97.2236C97.2236 17.8424 97.1771 17.7529 97.084 17.7314C97.041 17.7243 96.998 17.7207 96.9551 17.7207H96.5361V15.0029C96.5361 14.1579 96.2425 13.6136 95.6553 13.3701C95.4691 13.2913 95.2686 13.252 95.0537 13.252C94.5381 13.252 94.1012 13.4561 93.7432 13.8643C93.6286 14.0003 93.5355 14.1436 93.4639 14.2939L93.4102 13.4023H91.6055V13.6709H92.293V17.1406C92.293 17.4557 92.1748 17.6383 91.9385 17.6885C91.8454 17.71 91.7344 17.7207 91.6055 17.7207V18H94.0762C94.0762 17.8424 94.0296 17.7529 93.9365 17.7314C93.8936 17.7243 93.8506 17.7207 93.8076 17.7207ZM101.596 18.1074C102.104 18.1074 102.419 17.9069 102.541 17.5059C102.577 17.3626 102.602 17.1908 102.616 16.9902L102.337 16.9795C102.294 17.4808 102.165 17.735 101.95 17.7422C101.785 17.7279 101.703 17.5488 101.703 17.2051V14.9492C101.703 14.0254 101.266 13.4775 100.393 13.3057C100.214 13.2699 100.024 13.252 99.8232 13.252C98.9209 13.252 98.3372 13.4525 98.0723 13.8535C97.9935 13.9681 97.9541 14.0898 97.9541 14.2188C97.9541 14.4622 98.0687 14.6198 98.2979 14.6914C98.3623 14.7129 98.4268 14.7236 98.4912 14.7236C98.749 14.7236 98.9281 14.5911 99.0283 14.3262C99.0426 14.2904 99.0641 14.2295 99.0928 14.1436C99.1787 13.8499 99.2897 13.6673 99.4258 13.5957C99.5189 13.5527 99.6227 13.5312 99.7373 13.5312C100.167 13.5312 100.418 13.7855 100.489 14.2939C100.504 14.4085 100.511 14.5339 100.511 14.6699V15.3574C98.6344 15.3861 97.6927 15.8766 97.6855 16.8291C97.6855 17.445 97.9541 17.8424 98.4912 18.0215C98.6631 18.0788 98.8493 18.1074 99.0498 18.1074C99.6156 18.1074 100.056 17.9069 100.371 17.5059C100.457 17.3841 100.525 17.2588 100.575 17.1299C100.69 17.7744 101.03 18.1003 101.596 18.1074ZM99.5439 17.6562C99.1429 17.6562 98.9281 17.3698 98.8994 16.7969C98.8994 16.7611 98.8994 16.7253 98.8994 16.6895C98.8994 16.2025 99.1429 15.8945 99.6299 15.7656C99.859 15.7012 100.153 15.6654 100.511 15.6582V16.6357C100.389 17.1227 100.16 17.4414 99.8232 17.5918C99.723 17.6348 99.6299 17.6562 99.5439 17.6562ZM102.853 13.7139H103.594V16.5068C103.658 17.5452 104.142 18.0824 105.044 18.1182C105.61 18.1182 105.993 17.8926 106.193 17.4414C106.265 17.2839 106.322 17.0941 106.365 16.8721L106.075 16.8291C105.918 17.4665 105.663 17.7887 105.312 17.7959C105.012 17.7959 104.836 17.5918 104.786 17.1836C104.779 17.112 104.775 17.0404 104.775 16.9688V13.7139H106.279V13.4346H104.775V12.1885L103.594 12.4141V13.4346H102.853V13.7139ZM109.029 17.7207H108.589V13.4023H106.709V13.6709H107.407V17.1406C107.407 17.4486 107.289 17.6312 107.053 17.6885C106.967 17.71 106.852 17.7207 106.709 17.7207V18H109.287C109.287 17.8353 109.233 17.7458 109.126 17.7314C109.097 17.7243 109.065 17.7207 109.029 17.7207ZM108.696 11.9414C108.696 11.6478 108.564 11.4294 108.299 11.2861C108.191 11.2288 108.08 11.2002 107.966 11.2002C107.672 11.2002 107.457 11.3327 107.321 11.5977C107.264 11.7122 107.235 11.8268 107.235 11.9414C107.235 12.2422 107.368 12.457 107.633 12.5859C107.74 12.6361 107.851 12.6611 107.966 12.6611C108.259 12.6611 108.474 12.5358 108.61 12.2852C108.668 12.1777 108.696 12.0632 108.696 11.9414ZM111.199 15.6797C111.199 14.5911 111.393 13.9215 111.779 13.6709C111.937 13.5778 112.119 13.5312 112.327 13.5312C112.871 13.5312 113.215 13.8392 113.358 14.4551C113.43 14.7559 113.466 15.1497 113.466 15.6367C113.466 16.7897 113.247 17.4844 112.811 17.7207C112.667 17.7923 112.506 17.8281 112.327 17.8281C111.79 17.8281 111.45 17.5202 111.307 16.9043C111.235 16.5964 111.199 16.1882 111.199 15.6797ZM112.37 13.252C111.554 13.252 110.909 13.5312 110.437 14.0898C110.078 14.5195 109.899 15.0352 109.899 15.6367C109.899 16.4674 110.193 17.1191 110.78 17.5918C111.21 17.9355 111.715 18.1074 112.295 18.1074C113.09 18.1074 113.724 17.821 114.196 17.248C114.569 16.7969 114.755 16.2598 114.755 15.6367C114.755 14.7988 114.454 14.1579 113.853 13.7139C113.437 13.4059 112.943 13.252 112.37 13.252ZM117.559 17.7207H117.226L117.236 15.0674C117.286 14.4945 117.501 14.1006 117.881 13.8857C118.017 13.8141 118.153 13.7783 118.289 13.7783C118.69 13.7783 118.944 13.9896 119.052 14.4121C119.088 14.541 119.105 14.6842 119.105 14.8418V17.1406C119.105 17.4414 119.023 17.6204 118.858 17.6777C118.78 17.7064 118.665 17.7207 118.515 17.7207V18H120.975C120.975 17.8424 120.928 17.7529 120.835 17.7314C120.792 17.7243 120.749 17.7207 120.706 17.7207H120.287V15.0029C120.287 14.1579 119.993 13.6136 119.406 13.3701C119.22 13.2913 119.02 13.252 118.805 13.252C118.289 13.252 117.852 13.4561 117.494 13.8643C117.38 14.0003 117.286 14.1436 117.215 14.2939L117.161 13.4023H115.356V13.6709H116.044V17.1406C116.044 17.4557 115.926 17.6383 115.689 17.6885C115.596 17.71 115.485 17.7207 115.356 17.7207V18H117.827C117.827 17.8424 117.781 17.7529 117.688 17.7314C117.645 17.7243 117.602 17.7207 117.559 17.7207ZM125.347 18.1074C125.855 18.1074 126.17 17.9069 126.292 17.5059C126.328 17.3626 126.353 17.1908 126.367 16.9902L126.088 16.9795C126.045 17.4808 125.916 17.735 125.701 17.7422C125.536 17.7279 125.454 17.5488 125.454 17.2051V14.9492C125.454 14.0254 125.017 13.4775 124.144 13.3057C123.965 13.2699 123.775 13.252 123.574 13.252C122.672 13.252 122.088 13.4525 121.823 13.8535C121.744 13.9681 121.705 14.0898 121.705 14.2188C121.705 14.4622 121.82 14.6198 122.049 14.6914C122.113 14.7129 122.178 14.7236 122.242 14.7236C122.5 14.7236 122.679 14.5911 122.779 14.3262C122.794 14.2904 122.815 14.2295 122.844 14.1436C122.93 13.8499 123.041 13.6673 123.177 13.5957C123.27 13.5527 123.374 13.5312 123.488 13.5312C123.918 13.5312 124.169 13.7855 124.24 14.2939C124.255 14.4085 124.262 14.5339 124.262 14.6699V15.3574C122.385 15.3861 121.444 15.8766 121.437 16.8291C121.437 17.445 121.705 17.8424 122.242 18.0215C122.414 18.0788 122.6 18.1074 122.801 18.1074C123.367 18.1074 123.807 17.9069 124.122 17.5059C124.208 17.3841 124.276 17.2588 124.326 17.1299C124.441 17.7744 124.781 18.1003 125.347 18.1074ZM123.295 17.6562C122.894 17.6562 122.679 17.3698 122.65 16.7969C122.65 16.7611 122.65 16.7253 122.65 16.6895C122.65 16.2025 122.894 15.8945 123.381 15.7656C123.61 15.7012 123.904 15.6654 124.262 15.6582V16.6357C124.14 17.1227 123.911 17.4414 123.574 17.5918C123.474 17.6348 123.381 17.6562 123.295 17.6562ZM129.203 17.7207H128.655V11.0176H126.646V11.2969H127.474V17.1191C127.474 17.4271 127.366 17.6133 127.151 17.6777C127.044 17.7064 126.876 17.7207 126.646 17.7207V18H129.472C129.472 17.8424 129.425 17.7529 129.332 17.7314C129.289 17.7243 129.246 17.7207 129.203 17.7207Z" fill="#444444"/>
<path d="M29.301 10.4836C29.436 10.3703 29.5753 10.2612 29.7186 10.1564C30.3644 9.68455 31.3514 9.11592 32.4791 9.01616C32.8066 8.98527 33.1374 8.99872 33.4605 9.05606C34.8319 9.29649 35.8389 10.2771 36.4105 10.9814C37.0696 11.7905 36.5213 12.7971 35.5941 13.0664L30.9637 14.4162L27.5319 18.4126C26.4574 19.6636 24.2441 18.7547 24.5886 17.2035L24.9132 15.743L21.57 16.7815C21.2781 16.8721 20.9663 16.8985 20.6608 16.8587C20.3552 16.8188 20.0646 16.7138 19.8132 16.5524C19.5618 16.391 19.3568 16.1778 19.2154 15.9307C19.0739 15.6835 19.0001 15.4095 19 15.1315V12.1526C19 12.0768 19.0066 12.005 19.021 11.9361C19.195 11.0413 20.4423 10.7221 21.128 11.3176C21.2343 11.4074 21.3274 11.5211 21.3994 11.6568L22.0563 12.8779L28.4868 10.9475C28.7726 10.8617 29.044 10.6991 29.301 10.4836Z" fill="white"/>
<path fill-rule="evenodd" clip-rule="evenodd" d="M29.7093 10.9616C29.407 11.2151 29.0608 11.4295 28.6701 11.5468L21.7426 13.6264L20.8398 11.9482C20.8047 11.882 20.762 11.8314 20.7179 11.7942L20.7112 11.7885C20.556 11.6537 20.3042 11.6008 20.0543 11.6707C19.8087 11.7393 19.6734 11.8917 19.6418 12.0545L19.6409 12.0589L19.64 12.0632C19.6356 12.0845 19.6321 12.1131 19.6321 12.1526L19.6321 15.1312C19.6321 15.1313 19.6321 15.1312 19.6321 15.1312C19.6322 15.2986 19.6765 15.4667 19.7653 15.6218C19.8544 15.7775 19.987 15.9177 20.157 16.0269C20.3273 16.1362 20.5281 16.2097 20.7433 16.2378C20.9584 16.2659 21.1773 16.247 21.3808 16.184C21.3809 16.1839 21.3808 16.184 21.3808 16.184L25.7651 14.8221L25.206 17.338C25.206 17.338 25.206 17.338 25.206 17.338C25.1154 17.7461 25.3348 18.1015 25.7702 18.2804C26.2097 18.4609 26.7227 18.3883 27.0504 18.0068C27.0504 18.0068 27.0504 18.0068 27.0504 18.0068L30.6044 13.8681L35.4156 12.4657C35.7141 12.379 35.9281 12.1791 36.0179 11.9754C36.0976 11.7949 36.0944 11.5906 35.9185 11.3747L35.9178 11.3738C35.3757 10.7059 34.4921 9.87285 33.3504 9.6727L33.3491 9.67247C33.0826 9.62518 32.8095 9.61405 32.539 9.63956L32.5353 9.63991C31.5759 9.72478 30.7012 10.2166 30.094 10.6603C29.9619 10.7568 29.8335 10.8574 29.7093 10.9616ZM29.7186 10.1564C29.5753 10.2612 29.436 10.3703 29.301 10.4836C29.044 10.6991 28.7726 10.8617 28.4868 10.9475L22.0563 12.8779L21.3994 11.6568C21.3274 11.5211 21.2343 11.4074 21.128 11.3176C20.4423 10.7221 19.195 11.0413 19.021 11.9361C19.0066 12.005 19 12.0768 19 12.1526V15.1315C19.0001 15.4095 19.0739 15.6835 19.2154 15.9307C19.3568 16.1778 19.5618 16.391 19.8132 16.5524C20.0646 16.7138 20.3552 16.8188 20.6608 16.8587C20.9663 16.8985 21.2781 16.8721 21.57 16.7815L24.9132 15.743L24.5886 17.2035C24.2441 18.7547 26.4574 19.6636 27.5319 18.4126L30.9637 14.4162L35.5941 13.0664C36.5213 12.7971 37.0696 11.7905 36.4105 10.9814C35.8389 10.2771 34.8319 9.29649 33.4605 9.05606C33.1374 8.99872 32.8066 8.98527 32.4791 9.01616C31.3514 9.11592 30.3644 9.68455 29.7186 10.1564Z" fill="#686868"/>
<path d="M22.7486 11.6177L26.8805 10.3777L25.1015 9.27933C24.807 9.09738 24.4583 8.99999 24.1012 9C22.6334 9 21.8048 10.5213 22.7054 11.5668L22.7486 11.6177V11.6177Z" fill="white"/>
<path fill-rule="evenodd" clip-rule="evenodd" d="M22.7486 11.6177L26.8805 10.3777L25.1015 9.27933C24.807 9.09738 24.4583 8.99999 24.1012 9C22.6334 9 21.8048 10.5213 22.7054 11.5668L22.7486 11.6177ZM25.3631 10.1787L24.7671 9.81078C24.5761 9.69272 24.3436 9.62622 24.1012 9.62622C23.5978 9.62622 23.2385 9.88188 23.0716 10.1885C22.9555 10.402 22.9262 10.6465 23.0171 10.8828L25.3631 10.1787Z" fill="#686868"/>
</svg>
